#!OML:ASF F:\VICON\USERDATA\INSTALL\rory3\rory3.ASF
:FULLY-SPECIFIED
:DEGREES
61
root 0.47756448081144237 17.911859570981605 27.667632718842512 -3.078569414689628 -0.9810333199658459 -5.246215580060635
lfemur -11.20155336212477 -1.266491652930772 -15.878940964229152
ltibia 47.950851317062146
lfoot -12.476445887638665 -1.905301689504099
ltoes 0.43308730812000507
rfemur -0.14959381476627875 4.444370145606593 27.532134656441787
rtibia 44.75477522125253
rfoot -18.96181309155302 -10.00504790140818
rtoes -4.699522334141436
lowerback 9.814091873526344 1.797917128866541 4.406048832936579
upperback 0.441458313018637 3.051806331671783 1.9230381974323503
thorax -4.961451554142965 1.5596516362532276 -0.6447857358214083
lowerneck -16.67749410771333 -3.0863485349032778 -1.345657753857071
upperneck 21.331944753865805 -4.026252474162915 0.4915722973581666
head 9.667822635732989 -1.9291986339042533 -0.1482078055819583
lclavicle -2.7971981745209596e-15 -4.1600761641187077e-16
lhumerus -34.586523201652234 3.672973296349239 84.27257063309027
lradius 23.869002690764127
lwrist 7.532109452546949
lhand -27.312771786851684 23.664088245133716
lfingers 7.1250199999999975
lthumb -0.9531998798337691 53.58451303618646
rclavicle -2.797198174457937e-15 -4.16007616369386e-16
rhumerus -26.904783084135254 -13.975526621472309 -79.60860467142905
rradius 26.618685925001436
rwrist 4.894634307535826
rhand -17.41205953883482 21.940466999140813
rfingers 7.1250199999999975
rthumb 8.690377645770525 -7.242427517192735
62
root 0.4831882558958549 17.9046884771271 28.02166852313602 -3.1704279401948754 -0.9840019022402244 -4.6623238551194275
lfemur -10.56044496793781 -1.404883954436249 -16.581767432333812
ltibia 46.37072781853723
lfoot -12.859558245245443 -1.5407483225014595
ltoes -0.8838076672706578
rfemur -1.5243359983202165 4.36621335632461 26.63528626884523
rtibia 46.21465363992573
rfoot -18.653183504980856 -9.733928426987568
rtoes -4.072992449204525
lowerback 9.798837852337673 1.7401486537912474 3.831904491900758
upperback 0.3799387565977563 2.87963555809266 1.7864640260362579
thorax -4.9781646265118376 1.4882357353975526 -0.6451225709857785
lowerneck -16.65995417184161 -3.0855245483772165 -1.3332874692218564
upperneck 21.364323733362156 -4.0224810850429105 0.5182640612009632
head 9.711980755285973 -1.924177967391406 -0.14746323873777575
lclavicle -2.7971981745158154e-15 -4.1600761640864024e-16
lhumerus -34.09779382588137 3.263859178712396 84.09743582320488
lradius 24.051640931390263
lwrist 7.291584279260196
lhand -27.281786420069814 23.35675668368127
lfingers 7.1250199999999975
lthumb -0.8798876330526033 53.318547114446716
rclavicle -2.7971981744575277e-15 -4.160076163693183e-16
rhumerus -27.28798062798307 -14.211530754636751 -79.70522282944395
rradius 26.460581157926537
rwrist 4.522545499429123
rhand -17.39622730307248 21.858886028227165
rfingers 7.1250199999999975
rthumb 8.69810907064262 -7.405740457975907
63
root 0.5014871639068935 17.896852570686825 28.752532399708336 -3.2372275571593336 -0.8831293317948801 -3.9841981787469924
lfemur -9.543699860660407 -1.620661490288819 -17.440264654641766
ltibia 44.67250851967621
lfoot -13.140769394578752 -1.0071434545104228
ltoes -3.357553340864683
rfemur -3.048060225532259 4.232210700051416 25.671317568762024
rtibia 47.70180096385094
rfoot -18.42865234294912 -9.626106140846783
rtoes -4.14999884772071
lowerback 9.753410716752242 1.6737152606191257 3.3281055533239776
upperback 0.40154677376531767 2.714654252576985 1.6618733884790193
thorax -4.9164021619174605 1.4261113598195854 -0.5261823461645746
lowerneck -16.683581658848937 -3.094541589581758 -1.3636952827025564
upperneck 21.426216592214203 -4.042523386655134 0.5659011909722402
head 9.729312749181368 -1.93168228199311 -0.12995146567168733
lclavicle -2.7971981745169668e-15 -4.1600761640948526e-16
lhumerus -33.34374263174138 2.9393567058078878 84.0089591116811
lradius 24.274122886676306
lwrist 7.445531953168272
lhand -27.3599200486864 22.96167495744161
lfingers 7.1250199999999975
lthumb -0.9286405964149832 52.97826676170993
rclavicle -2.7971981744577273e-15 -4.1600761636953497e-16
rhumerus -27.754778065097373 -14.62368618826236 -79.88051028252984
rradius 26.360877248186203
rwrist 4.572927865784422
rhand -17.365443231048168 21.862790368906513
rfingers 7.1250199999999975
rthumb 8.704231813334731 -7.539714530490662
64
root 0.5275384007904692 17.88673169559408 29.962967304425227 -3.324961193685688 -0.7836320305020192 -3.1638558778537913
lfemur -8.421653266009782 -1.9159591537625897 -18.511785242799423
ltibia 42.9934207842114
lfoot -13.52433677764978 -0.4721649656208757
ltoes -5.864387197564346
rfemur -4.687287019731723 4.011148830244055 24.556552922589095
rtibia 49.44119708484882
rfoot -18.20667717694014 -9.620942910150552
rtoes -4.652467297800868
lowerback 9.698490761312778 1.5716005546392076 2.6233829590322637
upperback 0.38084806963461854 2.4656248211093716 1.4856922725233423
thorax -4.928965579413235 1.2964854499948602 -0.41112545469694994
lowerneck -16.650454361246847 -3.088992192701684 -1.384813969122041
upperneck 21.454531478881314 -4.045544285567902 0.6084278295152247
head 9.749505463340583 -1.9321795326966889 -0.10948810744626311
lclavicle -2.7971981745109308e-15 -4.160076164055029e-16
lhumerus -32.758776390220405 2.089761443335859 83.85514668717752
lradius 24.59076538138808
lwrist 7.830139855362249
lhand -27.541440655384953 22.728960713355907
lfingers 7.1250199999999975
lthumb -1.0755460136951975 52.79502805137033
rclavicle -2.797198174459444e-15 -4.1600761637068533e-16
rhumerus -28.07657796867218 -14.898735844921106 -80.16754214912051
rradius 26.2903368243726
rwrist 4.7541556783894885
rhand -17.33509069839721 21.84759144190884
rfingers 7.1250199999999975
rthumb 8.813122475886143 -7.465663254046857
65
root 0.5580708622438586 17.877058628886076 31.13320727877398 -3.3734563576473198 -0.6830575389506974 -2.4634108300862705
lfemur -7.554277978779572 -2.191714793408786 -19.578325174414065
ltibia 41.68303380374074
lfoot -13.900748135774553 0.18422647263819214
ltoes -8.307165099302589
rfemur -6.41127754622434 3.754385085135027 23.545774487183095
rtibia 51.1123635774616
rfoot -17.895638230857386 -9.617706669205761
rtoes -3.882686573458504
lowerback 9.629398152890014 1.4677408962648322 2.049946638811212
upperback 0.40318214062139124 2.2185338496977383 1.3740693834404722
thorax -4.9053007550215115 1.1765438002258803 -0.1974485794862163
lowerneck -16.657981539294045 -3.0844137428760043 -1.400958195661009
upperneck 21.568563028803663 -4.04868217348489 0.6303465189098092
head 9.81470857540449 -1.933358008731987 -0.10287703911118098
lclavicle -2.797198174509648e-15 -4.1600761640453865e-16
lhumerus -31.855664968555867 1.3142577674399498 83.75464345218136
lradius 24.911814826198754
lwrist 8.161081660626952
lhand -27.68037737736438 22.582806330612666
lfingers 7.1250199999999975
lthumb -1.157092190050176 52.70518236898923
rclavicle -2.7971981744549946e-15 -4.160076163675834e-16
rhumerus -28.36617578409754 -15.187725446172589 -80.4770883516552
rradius 26.226433979412853
rwrist 5.023055164110729
rhand -17.2851729628979 21.872142927194737
rfingers 7.1250199999999975
rthumb 8.883020619825826 -7.530957822682765
66
root 0.586468158237952 17.872857290927584 31.954445204785465 -3.3320619800328246 -0.5736864356974993 -1.937147162531652
lfemur -6.5257445862341 -2.4376459378458044 -20.370954655642702
ltibia 40.65334590482632
lfoot -14.297115903904853 0.831782414535855
ltoes -8.209370289881676
rfemur -8.199534410521771 3.526356496137918 22.75532129791136
rtibia 52.36088213927768
rfoot -17.411738515885986 -9.458515598109864
rtoes -4.429712248757193
lowerback 9.625143365220959 1.2865599002014956 1.5115578135111125
upperback 0.41562093074009754 1.902439122882926 1.2568943246457378
thorax -4.9008979863550834 1.0236944801990462 0.04072946680030698
lowerneck -16.66582208822209 -3.0736409575708694 -1.418429527922862
upperneck 21.58762462491183 -4.029510770484887 0.6443325788745407
head 9.837580362232822 -1.923785383686445 -0.08616353164502999
lclavicle -2.7971981745105896e-15 -4.160076164049906e-16
lhumerus -31.091820081709322 0.1317507295779673 83.56797191468993
lradius 25.285100539218014
lwrist 8.223880193953303
lhand -27.720052839345037 22.760138740103834
lfingers 7.1250199999999975
lthumb -1.208097723422803 52.82621585169864
rclavicle -2.7971981744601747e-15 -4.160076163708791e-16
rhumerus -28.579526845430973 -15.485149818617375 -80.75018187425002
rradius 26.11860278081701
rwrist 5.318828116421775
rhand -17.283686407970617 21.836420102134557
rfingers 7.1250199999999975
rthumb 8.938664063566018 -7.695787459652081
67
root 0.6222311136306535 17.879662329911188 32.76294179360658 -3.2474174029310183 -0.45226259945001646 -1.4302868790684764
lfemur -5.209105613779118 -2.7098563931611572 -21.127937813715377
ltibia 39.68881187997842
lfoot -14.576781196008007 1.5218931619178313
ltoes -8.155319895376174
rfemur -9.923150186482424 3.356834460488942 22.13544024185687
rtibia 53.00836322527205
rfoot -16.773570940969506 -9.15455295992348
rtoes -3.7638807372589693
lowerback 9.585974137358003 1.0864005567484 1.0056035164348056
upperback 0.4295715326677124 1.5344994829726246 1.1637192702435009
thorax -4.897847912577024 0.8461558014684494 0.34933693339157323
lowerneck -16.681142051902683 -3.0617523008410252 -1.4472881882502944
upperneck 21.567316929797414 -4.019873711494773 0.6730687323668156
head 9.832919561676476 -1.9190324918590782 -0.06417877755891452
lclavicle -2.797198174511294e-15 -4.16007616405149e-16
lhumerus -30.153094407368553 -1.024740702351974 83.36650472446567
lradius 25.632229046340168
lwrist 8.05131464645755
lhand -27.650422420488905 22.58669133557789
lfingers 7.1250199999999975
lthumb -1.1157112251804553 52.706968041602074
rclavicle -2.7971981744572425e-15 -4.160076163686419e-16
rhumerus -28.833922101879466 -15.993363526148372 -81.00873430826807
rradius 25.990616363345573
rwrist 5.504347111878659
rhand -17.302006951662428 21.714424723265097
rfingers 7.1250199999999975
rthumb 8.842617885034663 -8.082396320734064
